<?xml version="1.0" encoding="utf-8"?>
<!-- Generator: Adobe Illustrator 15.0.0, SVG Export Plug-In . SVG Version: 6.00 Build 0)  -->
<!DOCTYPE svg PUBLIC "-//W3C//DTD SVG 1.1//EN" "http://www.w3.org/Graphics/SVG/1.1/DTD/svg11.dtd">
<svg version="1.1" id="Layer_1" xmlns="http://www.w3.org/2000/svg" xmlns:xlink="http://www.w3.org/1999/xlink" x="0px" y="0px"
	 width="112.5px" height="112.5px" viewBox="0 0 112.5 112.5" enable-background="new 0 0 112.5 112.5" xml:space="preserve">
<linearGradient id="SVGID_1_" gradientUnits="userSpaceOnUse" x1="93.3223" y1="-10.6304" x2="19.1775" y2="123.1303">
	<stop  offset="0" style="stop-color:#FFD63E"/>
	<stop  offset="0.4585" style="stop-color:#FEC73C"/>
	<stop  offset="1" style="stop-color:#FDB939"/>
</linearGradient>
<rect fill="url(#SVGID_1_)" stroke="#FAA819" stroke-width="0.5" stroke-miterlimit="10" width="112.5" height="112.5"/>
<g>
	<path fill="#FFFFFF" stroke="#F47A20" stroke-width="0.5" stroke-miterlimit="10" d="M55.373,28.412
		c-2.498,0-4.857,0.313-7.077,0.937c-2.222,0.625-4.684,1.631-7.39,3.019l-4.371-11.761c2.706-1.733,5.896-3.07,9.575-4.007
		c3.677-0.937,7.285-1.405,10.824-1.405c4.439,0,8.1,0.59,10.98,1.77c2.878,1.181,5.151,2.672,6.816,4.476
		c1.666,1.805,2.827,3.783,3.487,5.933c0.658,2.151,0.988,4.199,0.988,6.141c0,1.943-0.296,3.73-0.885,5.36
		c-0.59,1.631-1.337,3.14-2.237,4.527c-0.902,1.389-1.943,2.706-3.122,3.955c-1.181,1.249-2.326,2.43-3.435,3.539
		c-0.833,0.833-1.701,1.717-2.603,2.654c-0.902,0.937-1.717,1.925-2.445,2.966c-0.729,1.041-1.337,2.133-1.822,3.278
		c-0.485,1.145-0.729,2.308-0.729,3.486c0,0.278,0,0.694,0,1.249c0,0.557,0.034,1.041,0.104,1.457H48.296
		c-0.14-0.692-0.227-1.474-0.261-2.342c-0.035-0.866-0.052-1.613-0.052-2.237c0-1.942,0.242-3.695,0.729-5.256
		c0.484-1.562,1.127-3.019,1.926-4.372c0.797-1.353,1.717-2.618,2.758-3.799c1.041-1.179,2.116-2.324,3.227-3.435
		c1.596-1.595,3.053-3.174,4.371-4.736c1.317-1.561,1.978-3.347,1.978-5.36c0-1.665-0.643-3.086-1.926-4.267
		C59.761,29.002,57.871,28.412,55.373,28.412z M65.053,80.764c0,3.055-0.989,5.412-2.967,7.077
		c-1.978,1.666-4.215,2.498-6.713,2.498s-4.735-0.832-6.713-2.498c-1.978-1.665-2.967-4.022-2.967-7.077
		c0-3.053,0.989-5.412,2.967-7.077s4.215-2.498,6.713-2.498s4.735,0.833,6.713,2.498S65.053,77.711,65.053,80.764z"/>
</g>
</svg>
