<?xml version="1.0" encoding="utf-8"?>
<!-- Generator: Adobe Illustrator 15.0.0, SVG Export Plug-In . SVG Version: 6.00 Build 0)  -->
<!DOCTYPE svg PUBLIC "-//W3C//DTD SVG 1.1//EN" "http://www.w3.org/Graphics/SVG/1.1/DTD/svg11.dtd">
<svg version="1.1" id="Layer_1" xmlns="http://www.w3.org/2000/svg" xmlns:xlink="http://www.w3.org/1999/xlink" x="0px" y="0px"
	 width="112.5px" height="112.5px" viewBox="0 0 112.5 112.5" enable-background="new 0 0 112.5 112.5" xml:space="preserve">
<rect x="-0.625" y="-0.626" fill="#009C58" width="113.75" height="113.75"/>
<path fill="#FFFFFF" d="M98.879,60.459v-8.476l-8.441-1.062c-0.385-2.482-1.02-4.877-1.903-7.156l6.875-4.945l-4.288-7.425
	l-7.906,3.134c-1.561-1.924-3.307-3.686-5.244-5.24l3.221-7.865l-7.414-4.279l-5.037,6.828c-2.279-0.885-4.674-1.525-7.16-1.908
	l-1.087-8.443H51.93l-1.008,8.445c-2.479,0.381-4.871,1.025-7.15,1.906l-5.458-6.586l-6.946,4.01l3.162,7.893
	c-1.925,1.555-3.684,3.316-5.234,5.24l-7.842-3.264l-4.135,7.16l6.658,5.34c-0.885,2.279-1.524,4.674-1.904,7.156l-8.451,1.251
	v8.382l8.451,1.022c0.38,2.483,1.02,4.876,1.904,7.157l-6.571,5.486l4.122,7.143l7.768-3.389c1.551,1.92,3.31,3.682,5.234,5.232
	l-3.225,7.857l7.334,4.232l5.133-6.77c2.279,0.883,4.672,1.52,7.15,1.9l1.095,8.448h8.379l1.183-8.448
	c2.489-0.382,4.883-1.019,7.161-1.9l5.263,6.693l7.295-4.211l-3.327-7.805c1.938-1.551,3.687-3.313,5.244-5.244l7.988,2.998
	l4.029-6.977l-6.698-5.252c0.885-2.28,1.521-4.672,1.905-7.156L98.879,60.459z M56.25,78.738c-12.416,0-22.489-10.073-22.489-22.489
	c0-12.421,10.073-22.489,22.489-22.489c12.418,0,22.488,10.068,22.488,22.489C78.738,68.665,68.668,78.738,56.25,78.738"/>
</svg>
