<?xml version="1.0" encoding="utf-8"?>
<!-- Generator: Adobe Illustrator 15.0.0, SVG Export Plug-In . SVG Version: 6.00 Build 0)  -->
<!DOCTYPE svg PUBLIC "-//W3C//DTD SVG 1.1//EN" "http://www.w3.org/Graphics/SVG/1.1/DTD/svg11.dtd">
<svg version="1.1" id="Layer_1" xmlns="http://www.w3.org/2000/svg" xmlns:xlink="http://www.w3.org/1999/xlink" x="0px" y="0px"
	 width="112.987px" height="112.985px" viewBox="0 0 112.987 112.985" enable-background="new 0 0 112.987 112.985"
	 xml:space="preserve">
<linearGradient id="SVGID_1_" gradientUnits="userSpaceOnUse" x1="57.52" y1="-0.7354" x2="55.5226" y2="113.6935">
	<stop  offset="0" style="stop-color:#F0576B"/>
	<stop  offset="1" style="stop-color:#E52525"/>
</linearGradient>
<rect x="0.271" y="0.229" fill="url(#SVGID_1_)" stroke="#ED2224" stroke-width="0.5" stroke-miterlimit="10" width="112.5" height="112.5"/>
<g>
	<circle fill="#FFFFFF" stroke="#ED2224" stroke-width="0.5" stroke-miterlimit="10" cx="21.18" cy="35.074" r="6.371"/>
	<path fill="#FFFFFF" stroke="#ED2224" stroke-width="0.5" stroke-miterlimit="10" d="M93.746,35.074
		c0,2.428-2.369,4.398-5.289,4.398H41.86c-2.921,0-5.289-1.971-5.289-4.398l0,0c0-2.431,2.368-4.4,5.289-4.4h46.597
		C91.376,30.674,93.746,32.643,93.746,35.074L93.746,35.074z"/>
	<circle fill="#FFFFFF" stroke="#ED2224" stroke-width="0.5" stroke-miterlimit="10" cx="20.997" cy="56.653" r="6.371"/>
	<path fill="#FFFFFF" stroke="#ED2224" stroke-width="0.5" stroke-miterlimit="10" d="M93.746,56.653
		c0,2.429-2.369,4.398-5.289,4.398H41.86c-2.921,0-5.289-1.969-5.289-4.398l0,0c0-2.43,2.368-4.4,5.289-4.4h46.597
		C91.376,52.253,93.746,54.224,93.746,56.653L93.746,56.653z"/>
	<circle fill="#FFFFFF" stroke="#ED2224" stroke-width="0.5" stroke-miterlimit="10" cx="21.18" cy="77.12" r="6.371"/>
	<path fill="#FFFFFF" stroke="#ED2224" stroke-width="0.5" stroke-miterlimit="10" d="M93.746,77.12c0,2.43-2.369,4.399-5.289,4.399
		H41.86c-2.921,0-5.289-1.97-5.289-4.399l0,0c0-2.429,2.368-4.398,5.289-4.398h46.597C91.376,72.721,93.746,74.691,93.746,77.12
		L93.746,77.12z"/>
</g>
</svg>
