<?xml version="1.0" encoding="utf-8"?>
<!-- Generator: Adobe Illustrator 15.0.0, SVG Export Plug-In . SVG Version: 6.00 Build 0)  -->
<!DOCTYPE svg PUBLIC "-//W3C//DTD SVG 1.1//EN" "http://www.w3.org/Graphics/SVG/1.1/DTD/svg11.dtd">
<svg version="1.1" id="Layer_1" xmlns="http://www.w3.org/2000/svg" xmlns:xlink="http://www.w3.org/1999/xlink" x="0px" y="0px"
	 width="60px" height="87px" viewBox="0 0 60 87" enable-background="new 0 0 60 87" xml:space="preserve">
<g>
	<g>
		<path fill="#0D3862" d="M15.091,82.958h3.428c0,0-3.793-10.667-3.795-10.67c-0.426-1.199-1.345-1.384-1.64-1.384H9.772
			c0.508,0.414,0.684,0.686,0.684,1.102c0,0.254-0.056,0.447-0.333,1.266l-3.28,9.688h2.24l0.991-3.005h3.998L15.091,82.958z
			 M13.44,78.087h-2.75l1.356-4.112L13.44,78.087z"/>
		<path fill="#0D3862" d="M28.99,81.251v-3.847c0-0.735-0.156-1.111-0.678-1.577l2.475,0.001c0.766,0,1.42,0.619,1.42,1.402v5.457
			c-1.209,0.354-2.436,0.551-3.555,0.551c-4.286,0-7.001-2.5-7.001-6.197c0-3.609,2.722-6.422,7.06-6.422
			c0.988,0,1.926,0.173,2.775,0.48v2.412c-0.762-0.505-1.725-0.806-2.775-0.806c-2.08,0-3.718,1.437-3.718,4.083
			c0,2.811,1.241,4.527,3.232,4.527C28.475,81.322,28.723,81.305,28.99,81.251z"/>
		<path fill="#0D3862" d="M40.791,72.461c0-0.859-0.68-1.557-1.516-1.557h-2.399c0.522,0.465,0.681,0.842,0.681,1.576v10.479h3.234
			v-5.068h3.682v5.068H47.7v-12.02h-3.228v4.906H40.79L40.791,72.461L40.791,72.461z"/>
	</g>
	<g>
		<g>
			<path fill="#0D3862" d="M35.977,62.868c2.683-1.843,5.024-4.688,5.024-10.718V15.987h2.679v36.166
				C43.68,58.85,40.331,61.527,35.977,62.868z"/>
			<path fill="#0D3862" d="M38.154,62.868c2.513-1.173,6.865-3.351,6.865-10.718V15.987h2.68v36.166
				C47.699,61.193,40.667,62.532,38.154,62.868z"/>
			<path fill="#0D3862" d="M34.303,62.868c2-2.011,2.68-6.028,2.68-11.386V15.987h2.682v36.166
				C39.661,58.161,37.652,61.193,34.303,62.868z"/>
		</g>
		<g>
			<path fill="#0D3862" d="M21.245,3.932c2.679,1.842,5.023,4.688,5.023,10.715V56.17h2.679V14.647
				C28.946,7.95,25.598,5.271,21.245,3.932z"/>
			<path fill="#0D3862" d="M23.422,3.932c2.511,1.172,6.864,3.349,6.864,10.715V56.17h2.679V14.647
				C32.966,5.606,25.934,4.267,23.422,3.932z"/>
			<path fill="#0D3862" d="M19.57,3.932c1.999,2.009,2.679,6.028,2.679,11.385V56.17h2.679V14.647
				C24.928,8.638,22.919,5.606,19.57,3.932z"/>
		</g>
		<g>
			<path fill="#0D3862" d="M19.236,62.868c-2.68-1.843-5.022-4.688-5.023-10.718V15.987h-2.679v36.166
				C11.534,58.85,14.882,61.527,19.236,62.868z"/>
			<path fill="#0D3862" d="M17.057,62.868c-2.511-1.173-6.865-3.351-6.865-10.718V15.987H7.514v36.166
				C7.514,61.193,14.546,62.532,17.057,62.868z"/>
			<path fill="#0D3862" d="M20.91,62.868c-2-2.011-2.68-6.028-2.68-11.386V15.987h-2.679v36.166
				C15.552,58.161,17.561,61.193,20.91,62.868z"/>
		</g>
	</g>
</g>
</svg>
