<?xml version="1.0" encoding="utf-8"?>
<!-- Generator: Adobe Illustrator 15.0.0, SVG Export Plug-In . SVG Version: 6.00 Build 0)  -->
<!DOCTYPE svg PUBLIC "-//W3C//DTD SVG 1.1//EN" "http://www.w3.org/Graphics/SVG/1.1/DTD/svg11.dtd">
<svg version="1.1" id="Layer_1" xmlns="http://www.w3.org/2000/svg" xmlns:xlink="http://www.w3.org/1999/xlink" x="0px" y="0px"
	 width="73px" height="87px" viewBox="0 0 73 87" enable-background="new 0 0 73 87" xml:space="preserve">
<g>
	<path fill="#0D3862" d="M36.235,49.453c-6.669-5.924-13.678-11.548-20.28-18.15c-4.625-4.626-9.939-9.126-12.858-15.927
		c-1.226-2.852-1.89-8.173,1.78-8.804c1.89-0.324,3.594,1.06,4.896,2.079c3.04,2.376,5.375,5.446,7.716,8.407
		c6.247,7.902,12.883,15.52,19.982,23c1.696,1.788,3.354,3.563,5.146,5.588c0.842,0.953,1.607,2.039,1.979,3.412
		c0.403,1.517-0.023,3.133-0.744,4.207c-0.691,1.029-1.727,2.019-2.621,3.016c-3.521,3.925-7.114,7.828-10.632,11.771
		c-1.485,1.668-3.594,4.627-6.677,4.399c-2.282-0.164-4.582-1.813-4.65-4.149c-0.073-2.578,2.027-4.255,3.363-5.595
		C27.159,58.186,31.753,53.975,36.235,49.453z"/>
	<path fill="#0D3862" d="M51.172,49.357c-3.758-4.045-6.703-8.354-10.188-12.913c-1.604-2.097-3.387-4.217-5.044-6.529
		c-0.738-1.029-1.603-2.309-2.227-3.561c-0.604-1.214-1.308-2.715-1.187-4.552c0.174-2.656,2.339-5.041,5.046-3.461
		c2.349,1.372,3.898,4.508,5.242,7.022c2.873,5.391,5.578,10.911,8.703,15.828c0.769,1.208,1.672,2.412,2.521,3.613
		c0.855,1.207,1.932,2.354,2.521,3.609c0.515,1.09,0.604,2.568,0,3.66c-0.389,0.693-1.049,1.291-1.584,1.879
		c-2.623,2.865-5.226,6.084-7.617,9.496c-0.782,1.115-1.918,3.006-3.361,3.463c-2.131,0.672-4.145-1.281-3.909-3.563
		c0.164-1.599,1.308-2.851,2.276-4.008C45.146,56.035,48.096,52.377,51.172,49.357z"/>
	<path fill="#0D3862" d="M62.646,49.258c-2.433-3.518-5.16-8.303-7.813-12.069c-0.95-1.346-2.121-3.057-2.326-4.896
		c-0.247-2.252,1.446-4.67,3.81-3.759c2.146,0.826,3.154,3.772,4.105,6.034c1.614,3.846,3.15,7.794,4.947,11.424
		c0.634,1.285,1.822,2.971,1.038,4.85c-0.468,1.119-1.835,2.238-2.622,3.166c-1.79,2.107-3.342,4.168-4.896,6.578
		c-0.681,1.053-1.548,3.006-3.264,2.867c-1.124-0.092-1.996-1.037-2.077-2.225c-0.062-0.854,0.269-1.484,0.543-2.031
		c0.492-0.973,1.245-1.885,1.929-2.719C58.021,54.043,60.418,51.357,62.646,49.258z"/>
</g>
</svg>
