<?xml version="1.0" encoding="utf-8"?>
<!-- Generator: Adobe Illustrator 15.0.0, SVG Export Plug-In . SVG Version: 6.00 Build 0)  -->
<!DOCTYPE svg PUBLIC "-//W3C//DTD SVG 1.1//EN" "http://www.w3.org/Graphics/SVG/1.1/DTD/svg11.dtd">
<svg version="1.1" id="Layer_1" xmlns="http://www.w3.org/2000/svg" xmlns:xlink="http://www.w3.org/1999/xlink" x="0px" y="0px"
	 width="85px" height="87px" viewBox="0 0 85 87" enable-background="new 0 0 85 87" xml:space="preserve">
<path fill="#0D3862" stroke="#FFFFFF" stroke-width="0.25" stroke-miterlimit="10" d="M60.82,32.715"/>
<path fill="#0D3862" stroke="#FFFFFF" stroke-width="0.25" stroke-miterlimit="10" d="M34.687,35.385"/>
<path fill="#0D3862" stroke="#FFFFFF" stroke-width="0.25" stroke-miterlimit="10" d="M78.938,61.291"/>
<path fill="#0D3862" stroke="#FFFFFF" stroke-width="0.25" stroke-miterlimit="10" d="M39.441,72.729"/>
<path fill="#0D3862" stroke="#FFFFFF" stroke-width="0.25" stroke-miterlimit="10" d="M65.984,69.876"/>
<path fill="#0D3862" stroke="#FFFFFF" stroke-width="0.25" stroke-miterlimit="10" d="M78.915,47.423"/>
<path fill="#0D3862" stroke="#FFFFFF" stroke-width="0.25" stroke-miterlimit="10" d="M21.56,43.686"/>
<g>
	<circle fill="#0D3862" cx="61.208" cy="23.418" r="4.005"/>
	<g>
		<path fill="#0D3862" d="M17.708,35.21l0.212-0.228l3.344-0.425l0.212,0.229v13.995c0,3.326,2.066,4.828,4.771,4.828
			c2.825,0,4.77-1.502,4.77-4.828V35.21l0.213-0.228l3.343-0.425l0.212,0.229v14.289c0,5.35-3.25,8.155-8.538,8.155
			c-5.194,0-8.539-2.809-8.539-8.155V35.21z"/>
		<path fill="#0D3862" d="M38.955,42.693c0-5.404,3.356-8.285,8.6-8.285c6.346,0,7.87,5.044,7.87,5.044l-0.122,0.294l-2.99,1.341
			l-0.304-0.096c0,0-1.159-2.981-4.454-2.981c-2.744,0-4.756,1.67-4.756,4.913v5.861c0,3.34,2.012,4.847,4.756,4.847
			c3.938,0,4.791-3.046,4.791-3.046l0.303-0.099l2.988,1.179l0.125,0.295c0,0-1.253,5.271-8.207,5.271c-5.244,0-8.6-2.813-8.6-8.186
			V42.693L38.955,42.693z"/>
		<path fill="#0D3862" d="M59.314,35.172l0.213-0.229l3.35-0.426l0.214,0.229v21.871l-0.214,0.229h-3.35l-0.213-0.229V35.172z"/>
	</g>
	<path fill="#0D3862" d="M19.085,20.228c-7.462,0-13.513,6.05-13.513,13.511L5.56,35.807c-0.002,0.064,0.016,9.327,0.025,13.039
		h0.147l2.204-13.154c0,0,0.325-1.953,0.424-2.348c1.332-5.387,5.901-9.498,11.522-10.157c1.534-0.303,25.345-2.334,31.781-2.88
		v-0.133L19.085,20.228z"/>
	<path fill="#0D3862" d="M61.988,69.484c7.463,0,13.513-6.051,13.513-13.512l0.013-2.068c0.002-0.063-0.019-9.326-0.025-13.038
		h-0.146l-2.204,13.155c0,0-0.322,1.951-0.424,2.348c-1.334,5.387-5.9,9.496-11.521,10.156c-1.533,0.303-25.343,2.334-31.778,2.881
		v0.131L61.988,69.484z"/>
</g>
</svg>
