<?xml version="1.0" encoding="utf-8"?>
<!-- Generator: Adobe Illustrator 15.0.0, SVG Export Plug-In . SVG Version: 6.00 Build 0)  -->
<!DOCTYPE svg PUBLIC "-//W3C//DTD SVG 1.1//EN" "http://www.w3.org/Graphics/SVG/1.1/DTD/svg11.dtd">
<svg version="1.1" id="Layer_1" xmlns="http://www.w3.org/2000/svg" xmlns:xlink="http://www.w3.org/1999/xlink" x="0px" y="0px"
	 width="112.5px" height="112.5px" viewBox="0 0 112.5 112.5" enable-background="new 0 0 112.5 112.5" xml:space="preserve">
<linearGradient id="SVGID_1_" gradientUnits="userSpaceOnUse" x1="-5.2334" y1="106.0371" x2="117.7324" y2="6.4614">
	<stop  offset="0" style="stop-color:#F37427"/>
	<stop  offset="1" style="stop-color:#F79B84"/>
</linearGradient>
<rect fill="url(#SVGID_1_)" stroke="#F47421" stroke-width="0.5" stroke-miterlimit="10" width="112.5" height="112.5"/>
<g>
	<path fill="#FFFFFF" stroke="#EF4523" stroke-width="0.5" stroke-miterlimit="10" d="M88.974,48.252h-5.195V34.399
		c0-3.808-3.127-6.935-6.933-6.935H62.995v-5.193c0-4.854-3.809-8.66-8.661-8.66c-4.854,0-8.658,3.805-8.658,8.66v5.193H31.825
		c-3.823,0-6.938,3.127-6.938,6.935v13.159h5.193c5.188,0,9.349,4.158,9.349,9.352c0,5.191-4.161,9.351-9.349,9.351h-5.193v13.16
		c0,3.807,3.115,6.936,6.938,6.936h13.157v-5.193c0-5.209,4.162-9.352,9.353-9.352c5.191,0,9.354,4.143,9.354,9.352v5.193h13.158
		c3.806,0,6.933-3.129,6.933-6.936v-13.85h5.195c4.85,0,8.661-3.81,8.661-8.662C97.635,52.056,93.823,48.252,88.974,48.252
		L88.974,48.252z M88.974,48.252"/>
</g>
</svg>
